<svg width="96" height="96" viewBox="0 0 96 96" fill="none" xmlns="http://www.w3.org/2000/svg">
<path d="M48 0C56.876 0 64.6584 4.63272 69.082 11.5986C69.7287 11.5483 70.3819 11.5195 71.04 11.5195C84.825 11.5196 96 22.6955 96 36.4805C95.9998 46.866 89.6574 55.7542 80.6396 59.5166V78.7197C80.6396 88.2631 72.9037 95.9998 63.3604 96H32.6396C23.0963 95.9998 15.3604 88.2631 15.3604 78.7197V59.5166C6.34259 55.7542 0.000191021 46.866 0 36.4805C0 22.6955 11.175 11.5196 24.96 11.5195C25.6168 11.5195 26.2686 11.5485 26.9141 11.5986C31.3375 4.63173 39.1233 0 48 0ZM48 5.75977C39.8595 5.75977 32.9015 10.8261 30.1084 17.9775C28.47 17.5226 26.7433 17.2803 24.96 17.2803C14.3561 17.2803 5.75977 25.8766 5.75977 36.4805C5.75999 45.7691 12.3565 53.5189 21.1201 55.2979V78.7197C21.1201 85.0819 26.2775 90.24 32.6396 90.2402H63.3604C69.7225 90.24 74.8799 85.0819 74.8799 78.7197V55.2979C83.6435 53.5189 90.24 45.7691 90.2402 36.4805C90.2402 25.8766 81.6439 17.2803 71.04 17.2803C69.2567 17.2803 67.53 17.5226 65.8916 17.9775L65.3174 16.6611C62.2215 10.2126 55.6312 5.75977 48 5.75977ZM49.5371 26.9287C53.049 27.1535 56.3509 28.1727 59.2871 30.1084L59.2842 30.1123C62.5851 32.2382 65.0489 35.2031 66.6904 38.8047L67.2754 40.1738C68.5422 43.4115 69.12 46.935 69.1201 50.6514C69.1201 51.5991 69.1006 52.4321 69.0566 53.0889C68.8146 56.7371 68.0107 60.2409 66.2285 63.1572L65.8613 63.7354C63.5934 67.0934 60.1484 69.0748 55.9766 69.0752C53.5349 69.0752 50.2687 68.4844 47.9922 65.7861C45.7332 68.5383 42.4297 69.1198 40.0234 69.1201C35.8188 69.1197 32.4077 67.0661 30.1504 63.7539L30.1201 63.7129L30.0898 63.668C28.1044 60.6352 27.2014 56.9607 26.9404 53.0967C26.9179 52.7622 26.9008 52.3831 26.8916 51.9717L26.8799 50.6514C26.88 46.4296 27.6359 42.4493 29.3096 38.8467C30.9769 35.2291 33.4368 32.2332 36.7383 30.0938C40.1092 27.9009 43.9429 26.8802 48.0225 26.8799L49.5371 26.9287ZM48.0225 32.6396C44.9305 32.6399 42.2157 33.4011 39.8809 34.9199C37.5779 36.4095 35.7963 38.5275 34.5342 41.2725C33.272 43.9891 32.6398 47.1169 32.6396 50.6514C32.6397 51.5559 32.6531 52.2427 32.6846 52.71C32.9054 55.9815 33.6501 58.5818 34.9121 60.5098C36.2057 62.408 37.9098 63.36 40.0234 63.3604C41.758 63.3601 42.9575 62.9197 43.6201 62.0439C44.3137 61.1681 44.6618 60.088 44.6621 58.8037C44.6621 58.2196 44.6142 57.7047 44.5195 57.2666C45.4657 57.325 46.3335 57.3564 47.1221 57.3564C48.3838 57.3564 49.8364 57.325 51.4766 57.2666C51.3819 57.7047 51.334 58.2196 51.334 58.8037C51.3343 60.059 51.6649 61.127 52.3271 62.0029C53.0214 62.8793 54.241 63.3154 55.9766 63.3154C58.1214 63.315 59.8259 62.3784 61.0879 60.5098C62.3493 58.6403 63.0907 56.0391 63.3115 52.71C63.343 52.2427 63.3603 51.5559 63.3604 50.6514C63.3602 47.0882 62.7277 43.9478 61.4658 41.2314C60.2355 38.5154 58.4533 36.4097 56.1191 34.9199C53.8159 33.4013 51.1143 32.6398 48.0225 32.6396ZM47.8799 43.3799C49.2051 43.3799 50.1853 43.8162 50.8164 44.6924C51.4469 45.5393 51.7616 46.6503 51.7617 48.0225C51.7617 48.6644 51.731 49.1486 51.668 49.4697C50.0277 49.4113 48.7807 49.3799 47.9287 49.3799C47.1398 49.3799 45.8901 49.4113 44.1865 49.4697C44.092 48.9447 44.048 48.4324 44.0479 47.9365C44.0479 46.5929 44.3613 45.4946 44.9922 44.6475C45.6232 43.8006 46.5866 43.3801 47.8799 43.3799Z" fill="#FFDCF8"/>
</svg>
